# MagicaVoxel @ Ephtracy

# group
o 

# material
mtllib fire.mtl
usemtl palette

# normals
vn -1 0 0
vn 1 0 0
vn 0 0 1
vn 0 0 -1
vn 0 -1 0
vn 0 1 0

# texcoords
vt 0.0175781 0.5
vt 0.0214844 0.5
vt 0.0878906 0.5
vt 0.0917969 0.5
vt 0.841797 0.5

# verts
v -0.2 0.2 0.1
v -0.2 0.2 0
v -0.2 0.2 -0.2
v -0.2 0.3 0.1
v -0.2 0.3 0
v -0.2 0.3 -0.2
v -0.1 0.1 0.1
v -0.1 0.1 0
v -0.1 0.1 -0.2
v -0.1 0.2 0.2
v -0.1 0.2 0.1
v -0.1 0.2 0
v -0.1 0.2 -0.2
v -0.1 0.2 -0.3
v -0.1 0.3 0.2
v -0.1 0.3 0.1
v -0.1 0.3 0
v -0.1 0.3 -0.1
v -0.1 0.3 -0.2
v -0.1 0.3 -0.3
v -0.1 0.4 0.1
v -0.1 0.4 0
v -0.1 0.4 -0.1
v 0 0 0.1
v 0 0 0
v 0 0 -0.2
v 0 0 -0.3
v 0 0.1 0.2
v 0 0.1 0.1
v 0 0.1 0
v 0 0.1 -0.2
v 0 0.1 -0.3
v 0 0.2 0.2
v 0 0.2 0.1
v 0 0.3 0.2
v 0 0.3 0.1
v 0 0.4 0.2
v 0 0.4 0.1
v 0 0.4 0
v 0 0.4 -0.1
v 0 0.4 -0.2
v 0 0.4 -0.3
v 0 0.5 0.1
v 0 0.5 0
v 0 0.5 -0.2
v 0 0.5 -0.3
v 0.1 0.1 -0.1
v 0.1 0.1 -0.2
v 0.1 0.2 -0.1
v 0.1 0.2 -0.2
v 0.1 0.3 -0.1
v 0.1 0.3 -0.2
v 0.1 0.4 -0.1
v 0.1 0.4 -0.2
v 0.2 0.2 0
v 0.2 0.2 -0.2
v 0.2 0.2 -0.3
v 0.2 0.3 0
v 0.2 0.3 -0.2
v 0.2 0.3 -0.3
v -0.1 0.2 -0.1
v -0.1 0.2 -0.2
v -0.1 0.3 -0.1
v -0.1 0.3 -0.2
v 0 0.1 -0.1
v 0 0.1 -0.2
v 0 0.2 -0.1
v 0 0.2 -0.2
v 0 0.2 -0.3
v 0 0.3 -0.2
v 0 0.3 -0.3
v 0.1 0 0.1
v 0.1 0 0
v 0.1 0 -0.2
v 0.1 0 -0.3
v 0.1 0.1 0.2
v 0.1 0.1 0.1
v 0.1 0.1 0
v 0.1 0.1 -0.2
v 0.1 0.1 -0.3
v 0.1 0.2 0.2
v 0.1 0.2 0.1
v 0.1 0.2 0
v 0.1 0.2 -0.1
v 0.1 0.3 0.2
v 0.1 0.3 0.1
v 0.1 0.3 0
v 0.1 0.3 -0.1
v 0.1 0.4 0.2
v 0.1 0.4 0.1
v 0.1 0.4 0
v 0.1 0.4 -0.2
v 0.1 0.4 -0.3
v 0.1 0.5 0.1
v 0.1 0.5 0
v 0.1 0.5 -0.2
v 0.1 0.5 -0.3
v 0.2 0.1 0.1
v 0.2 0.1 0
v 0.2 0.1 -0.2
v 0.2 0.2 0.2
v 0.2 0.2 0.1
v 0.2 0.2 0
v 0.2 0.2 -0.2
v 0.2 0.3 0.2
v 0.2 0.3 0.1
v 0.2 0.3 0
v 0.2 0.3 -0.2
v 0.2 0.4 0.1
v 0.2 0.4 0
v 0.2 0.4 -0.2
v 0.3 0.2 0.1
v 0.3 0.2 0
v 0.3 0.2 -0.2
v 0.3 0.2 -0.3
v 0.3 0.3 0.1
v 0.3 0.3 0
v 0.3 0.3 -0.2
v 0.3 0.3 -0.3
v -0.1 0.2 0.2
v -0.1 0.3 0.2
v 0 0.1 0.2
v 0 0.2 0.2
v 0 0.3 0.2
v 0 0.4 0.2
v 0.1 0.1 0.2
v 0.1 0.2 0.2
v 0.1 0.3 0.2
v 0.1 0.4 0.2
v 0.2 0.2 0.2
v 0.2 0.3 0.2
v -0.2 0.2 0.1
v -0.2 0.3 0.1
v -0.1 0.1 0.1
v -0.1 0.2 0.1
v -0.1 0.3 0.1
v -0.1 0.4 0.1
v 0 0 0.1
v 0 0.1 0.1
v 0 0.2 0.1
v 0 0.3 0.1
v 0 0.4 0.1
v 0 0.5 0.1
v 0.1 0 0.1
v 0.1 0.1 0.1
v 0.1 0.2 0.1
v 0.1 0.3 0.1
v 0.1 0.4 0.1
v 0.1 0.5 0.1
v 0.2 0.1 0.1
v 0.2 0.2 0.1
v 0.2 0.3 0.1
v 0.2 0.4 0.1
v 0.3 0.2 0.1
v 0.3 0.3 0.1
v -0.1 0.2 -0.2
v -0.1 0.3 -0.2
v 0 0.2 -0.2
v 0 0.3 -0.2
v 0.1 0.2 0
v 0.1 0.3 0
v 0.2 0.2 0
v 0.2 0.3 0
v -0.1 0.2 -0.1
v -0.1 0.3 -0.1
v -0.1 0.4 -0.1
v 0 0.1 -0.1
v 0 0.2 -0.1
v 0 0.3 -0.1
v 0 0.4 -0.1
v 0.1 0.1 -0.1
v 0.1 0.2 -0.1
v 0.1 0.3 -0.1
v 0.1 0.4 -0.1
v -0.2 0.2 -0.2
v -0.2 0.3 -0.2
v -0.1 0.1 -0.2
v -0.1 0.2 -0.2
v -0.1 0.3 -0.2
v 0 0.1 -0.2
v 0 0.2 -0.2
v 0.1 0.1 -0.2
v 0.1 0.2 -0.2
v 0.1 0.3 -0.2
v 0.1 0.4 -0.2
v 0.2 0.1 -0.2
v 0.2 0.2 -0.2
v 0.2 0.3 -0.2
v 0.2 0.4 -0.2
v -0.1 0.2 -0.3
v -0.1 0.3 -0.3
v 0 0 -0.3
v 0 0.1 -0.3
v 0 0.2 -0.3
v 0 0.3 -0.3
v 0 0.4 -0.3
v 0 0.5 -0.3
v 0.1 0 -0.3
v 0.1 0.1 -0.3
v 0.1 0.4 -0.3
v 0.1 0.5 -0.3
v 0.2 0.2 -0.3
v 0.2 0.3 -0.3
v 0.3 0.2 -0.3
v 0.3 0.3 -0.3
v 0 0 0.1
v 0.1 0 0.1
v 0 0 0
v 0.1 0 0
v 0 0 -0.2
v 0.1 0 -0.2
v 0 0 -0.3
v 0.1 0 -0.3
v 0 0.1 0.2
v 0.1 0.1 0.2
v -0.1 0.1 0.1
v 0 0.1 0.1
v 0.1 0.1 0.1
v 0.2 0.1 0.1
v -0.1 0.1 0
v 0 0.1 0
v 0.1 0.1 0
v 0.2 0.1 0
v -0.1 0.1 -0.2
v 0 0.1 -0.2
v 0.1 0.1 -0.2
v 0.2 0.1 -0.2
v -0.1 0.2 0.2
v 0 0.2 0.2
v 0.1 0.2 0.2
v 0.2 0.2 0.2
v -0.2 0.2 0.1
v -0.1 0.2 0.1
v 0 0.2 0.1
v 0.1 0.2 0.1
v 0.2 0.2 0.1
v 0.3 0.2 0.1
v -0.2 0.2 0
v -0.1 0.2 0
v 0.2 0.2 0
v 0.3 0.2 0
v -0.2 0.2 -0.2
v -0.1 0.2 -0.2
v 0 0.2 -0.2
v 0.2 0.2 -0.2
v 0.3 0.2 -0.2
v -0.1 0.2 -0.3
v 0 0.2 -0.3
v 0.2 0.2 -0.3
v 0.3 0.2 -0.3
v 0.1 0.3 0
v 0.2 0.3 0
v 0.1 0.3 -0.1
v 0.1 0.3 -0.2
v 0.2 0.3 -0.2
v 0 0.4 -0.1
v 0.1 0.4 -0.1
v 0 0.4 -0.2
v 0.1 0.4 -0.2
v 0 0.4 -0.3
v 0.1 0.4 -0.3
v 0 0.1 -0.1
v 0.1 0.1 -0.1
v 0 0.1 -0.2
v 0.1 0.1 -0.2
v 0 0.1 -0.3
v 0.1 0.1 -0.3
v 0.1 0.2 0
v 0.2 0.2 0
v -0.1 0.2 -0.1
v 0 0.2 -0.1
v 0.1 0.2 -0.1
v -0.1 0.2 -0.2
v 0 0.2 -0.2
v 0.1 0.2 -0.2
v 0.2 0.2 -0.2
v -0.1 0.3 0.2
v 0 0.3 0.2
v 0.1 0.3 0.2
v 0.2 0.3 0.2
v -0.2 0.3 0.1
v -0.1 0.3 0.1
v 0 0.3 0.1
v 0.1 0.3 0.1
v 0.2 0.3 0.1
v 0.3 0.3 0.1
v -0.2 0.3 0
v -0.1 0.3 0
v 0.2 0.3 0
v 0.3 0.3 0
v -0.1 0.3 -0.1
v -0.2 0.3 -0.2
v -0.1 0.3 -0.2
v 0 0.3 -0.2
v 0.2 0.3 -0.2
v 0.3 0.3 -0.2
v -0.1 0.3 -0.3
v 0 0.3 -0.3
v 0.2 0.3 -0.3
v 0.3 0.3 -0.3
v 0 0.4 0.2
v 0.1 0.4 0.2
v -0.1 0.4 0.1
v 0 0.4 0.1
v 0.1 0.4 0.1
v 0.2 0.4 0.1
v -0.1 0.4 0
v 0 0.4 0
v 0.1 0.4 0
v 0.2 0.4 0
v -0.1 0.4 -0.1
v 0 0.4 -0.1
v 0.1 0.4 -0.2
v 0.2 0.4 -0.2
v 0 0.5 0.1
v 0.1 0.5 0.1
v 0 0.5 0
v 0.1 0.5 0
v 0 0.5 -0.2
v 0.1 0.5 -0.2
v 0 0.5 -0.3
v 0.1 0.5 -0.3

# faces
f 4/4/1 2/4/1 1/4/1
f 5/1/1 3/1/1 2/1/1
f 5/4/1 2/4/1 4/4/1
f 6/1/1 3/1/1 5/1/1
f 11/4/1 8/4/1 7/4/1
f 12/1/1 9/1/1 8/1/1
f 12/4/1 8/4/1 11/4/1
f 13/1/1 9/1/1 12/1/1
f 15/5/1 11/5/1 10/5/1
f 16/5/1 11/5/1 15/5/1
f 19/2/1 14/2/1 13/2/1
f 20/2/1 14/2/1 19/2/1
f 21/4/1 17/4/1 16/4/1
f 22/1/1 18/1/1 17/1/1
f 22/4/1 17/4/1 21/4/1
f 23/1/1 18/1/1 22/1/1
f 29/4/1 25/4/1 24/4/1
f 30/1/1 26/1/1 25/1/1
f 30/4/1 25/4/1 29/4/1
f 31/2/1 27/2/1 26/2/1
f 31/1/1 26/1/1 30/1/1
f 32/2/1 27/2/1 31/2/1
f 33/5/1 29/5/1 28/5/1
f 34/5/1 29/5/1 33/5/1
f 37/5/1 36/5/1 35/5/1
f 38/5/1 36/5/1 37/5/1
f 43/4/1 39/4/1 38/4/1
f 44/1/1 41/1/1 40/1/1
f 44/4/1 39/4/1 43/4/1
f 44/1/1 40/1/1 39/1/1
f 45/2/1 42/2/1 41/2/1
f 45/1/1 41/1/1 44/1/1
f 46/2/1 42/2/1 45/2/1
f 49/1/1 48/1/1 47/1/1
f 50/1/1 48/1/1 49/1/1
f 53/1/1 52/1/1 51/1/1
f 54/1/1 52/1/1 53/1/1
f 58/1/1 56/1/1 55/1/1
f 59/2/1 57/2/1 56/2/1
f 59/1/1 56/1/1 58/1/1
f 60/2/1 57/2/1 59/2/1
f 61/1/2 62/1/2 63/1/2
f 63/1/2 62/1/2 64/1/2
f 65/1/2 66/1/2 67/1/2
f 67/1/2 66/1/2 68/1/2
f 68/2/2 69/2/2 70/2/2
f 70/2/2 69/2/2 71/2/2
f 72/4/2 73/4/2 77/4/2
f 73/1/2 74/1/2 78/1/2
f 77/4/2 73/4/2 78/4/2
f 74/2/2 75/2/2 79/2/2
f 78/1/2 74/1/2 79/1/2
f 79/2/2 75/2/2 80/2/2
f 76/5/2 77/5/2 81/5/2
f 81/5/2 77/5/2 82/5/2
f 83/3/2 84/3/2 87/3/2
f 87/3/2 84/3/2 88/3/2
f 85/5/2 86/5/2 89/5/2
f 89/5/2 86/5/2 90/5/2
f 90/4/2 91/4/2 94/4/2
f 91/1/2 92/1/2 95/1/2
f 94/4/2 91/4/2 95/4/2
f 92/2/2 93/2/2 96/2/2
f 95/1/2 92/1/2 96/1/2
f 96/2/2 93/2/2 97/2/2
f 98/4/2 99/4/2 102/4/2
f 99/1/2 100/1/2 103/1/2
f 102/4/2 99/4/2 103/4/2
f 103/1/2 100/1/2 104/1/2
f 101/5/2 102/5/2 105/5/2
f 105/5/2 102/5/2 106/5/2
f 106/4/2 107/4/2 109/4/2
f 107/1/2 108/1/2 110/1/2
f 109/4/2 107/4/2 110/4/2
f 110/1/2 108/1/2 111/1/2
f 112/4/2 113/4/2 116/4/2
f 113/1/2 114/1/2 117/1/2
f 116/4/2 113/4/2 117/4/2
f 114/2/2 115/2/2 118/2/2
f 117/1/2 114/1/2 118/1/2
f 118/2/2 115/2/2 119/2/2
f 123/5/3 121/5/3 120/5/3
f 124/5/3 121/5/3 123/5/3
f 126/5/3 123/5/3 122/5/3
f 126/5/3 125/5/3 124/5/3
f 126/5/3 124/5/3 123/5/3
f 127/5/3 125/5/3 126/5/3
f 128/5/3 125/5/3 127/5/3
f 129/5/3 125/5/3 128/5/3
f 130/5/3 128/5/3 127/5/3
f 131/5/3 128/5/3 130/5/3
f 135/4/3 133/4/3 132/4/3
f 136/4/3 133/4/3 135/4/3
f 139/4/3 135/4/3 134/4/3
f 140/4/3 135/4/3 139/4/3
f 141/4/3 137/4/3 136/4/3
f 142/4/3 137/4/3 141/4/3
f 144/4/3 139/4/3 138/4/3
f 145/4/3 139/4/3 144/4/3
f 148/4/3 143/4/3 142/4/3
f 149/4/3 143/4/3 148/4/3
f 150/4/3 146/4/3 145/4/3
f 151/4/3 146/4/3 150/4/3
f 152/4/3 148/4/3 147/4/3
f 153/4/3 148/4/3 152/4/3
f 154/4/3 152/4/3 151/4/3
f 155/4/3 152/4/3 154/4/3
f 158/2/3 157/2/3 156/2/3
f 159/2/3 157/2/3 158/2/3
f 160/4/4 161/4/4 162/4/4
f 162/4/4 161/4/4 163/4/4
f 164/5/4 165/5/4 168/5/4
f 165/1/4 166/1/4 169/1/4
f 168/5/4 165/5/4 169/5/4
f 169/1/4 166/1/4 170/1/4
f 167/5/4 168/5/4 171/5/4
f 168/3/4 169/3/4 172/3/4
f 171/5/4 168/5/4 172/5/4
f 169/5/4 170/5/4 173/5/4
f 172/3/4 169/3/4 173/3/4
f 173/5/4 170/5/4 174/5/4
f 175/1/4 176/1/4 178/1/4
f 178/1/4 176/1/4 179/1/4
f 177/1/4 178/1/4 180/1/4
f 180/1/4 178/1/4 181/1/4
f 182/1/4 183/1/4 186/1/4
f 186/1/4 183/1/4 187/1/4
f 184/1/4 185/1/4 188/1/4
f 188/1/4 185/1/4 189/1/4
f 190/2/4 191/2/4 194/2/4
f 194/2/4 191/2/4 195/2/4
f 192/2/4 193/2/4 198/2/4
f 198/2/4 193/2/4 199/2/4
f 196/2/4 197/2/4 200/2/4
f 200/2/4 197/2/4 201/2/4
f 202/2/4 203/2/4 204/2/4
f 204/2/4 203/2/4 205/2/4
f 208/4/5 207/4/5 206/4/5
f 209/4/5 207/4/5 208/4/5
f 210/1/5 209/1/5 208/1/5
f 211/1/5 209/1/5 210/1/5
f 212/2/5 211/2/5 210/2/5
f 213/2/5 211/2/5 212/2/5
f 217/5/5 215/5/5 214/5/5
f 218/5/5 215/5/5 217/5/5
f 220/4/5 217/4/5 216/4/5
f 221/4/5 217/4/5 220/4/5
f 222/4/5 219/4/5 218/4/5
f 223/4/5 219/4/5 222/4/5
f 224/1/5 221/1/5 220/1/5
f 225/1/5 221/1/5 224/1/5
f 226/1/5 223/1/5 222/1/5
f 227/1/5 223/1/5 226/1/5
f 233/5/5 229/5/5 228/5/5
f 234/5/5 229/5/5 233/5/5
f 235/5/5 231/5/5 230/5/5
f 236/5/5 231/5/5 235/5/5
f 238/4/5 233/4/5 232/4/5
f 239/4/5 233/4/5 238/4/5
f 240/4/5 237/4/5 236/4/5
f 241/4/5 237/4/5 240/4/5
f 242/1/5 239/1/5 238/1/5
f 243/1/5 239/1/5 242/1/5
f 245/1/5 241/1/5 240/1/5
f 246/1/5 241/1/5 245/1/5
f 247/2/5 244/2/5 243/2/5
f 248/2/5 244/2/5 247/2/5
f 249/2/5 246/2/5 245/2/5
f 250/2/5 246/2/5 249/2/5
f 253/1/5 252/1/5 251/1/5
f 254/1/5 252/1/5 253/1/5
f 255/1/5 252/1/5 254/1/5
f 258/1/5 257/1/5 256/1/5
f 259/1/5 257/1/5 258/1/5
f 260/2/5 259/2/5 258/2/5
f 261/2/5 259/2/5 260/2/5
f 262/1/6 263/1/6 264/1/6
f 264/1/6 263/1/6 265/1/6
f 264/2/6 265/2/6 266/2/6
f 266/2/6 265/2/6 267/2/6
f 268/1/6 269/1/6 272/1/6
f 270/1/6 271/1/6 273/1/6
f 273/1/6 271/1/6 274/1/6
f 272/1/6 269/1/6 275/1/6
f 275/1/6 269/1/6 276/1/6
f 277/5/6 278/5/6 282/5/6
f 282/5/6 278/5/6 283/5/6
f 279/5/6 280/5/6 284/5/6
f 284/5/6 280/5/6 285/5/6
f 281/4/6 282/4/6 287/4/6
f 287/4/6 282/4/6 288/4/6
f 285/4/6 286/4/6 289/4/6
f 289/4/6 286/4/6 290/4/6
f 287/1/6 288/1/6 291/1/6
f 287/1/6 291/1/6 292/1/6
f 292/1/6 291/1/6 293/1/6
f 289/1/6 290/1/6 295/1/6
f 295/1/6 290/1/6 296/1/6
f 293/2/6 294/2/6 297/2/6
f 297/2/6 294/2/6 298/2/6
f 295/2/6 296/2/6 299/2/6
f 299/2/6 296/2/6 300/2/6
f 301/5/6 302/5/6 304/5/6
f 304/5/6 302/5/6 305/5/6
f 303/4/6 304/4/6 307/4/6
f 307/4/6 304/4/6 308/4/6
f 305/4/6 306/4/6 309/4/6
f 309/4/6 306/4/6 310/4/6
f 307/1/6 308/1/6 311/1/6
f 311/1/6 308/1/6 312/1/6
f 309/1/6 310/1/6 313/1/6
f 313/1/6 310/1/6 314/1/6
f 315/4/6 316/4/6 317/4/6
f 317/4/6 316/4/6 318/4/6
f 317/1/6 318/1/6 319/1/6
f 319/1/6 318/1/6 320/1/6
f 319/2/6 320/2/6 321/2/6
f 321/2/6 320/2/6 322/2/6
